<?xml version="1.0" standalone="no"?>
<!DOCTYPE svg PUBLIC "-//W3C//DTD SVG 20010904//EN"
 "http://www.w3.org/TR/2001/REC-SVG-20010904/DTD/svg10.dtd">
<svg version="1.0" xmlns="http://www.w3.org/2000/svg"
 width="300.000000pt" height="157.000000pt" viewBox="0 0 300.000000 157.000000"
 preserveAspectRatio="xMidYMid meet">
<metadata>
Created by potrace 1.10, written by Peter Selinger 2001-2011
</metadata>
<g transform="translate(0.000000,157.000000) scale(0.100000,-0.100000)"
fill="#942444" stroke="white">
<path d="M1342 1464 l-57 -57 57 51 c54 49 90 64 101 42 3 -6 4 -5 3 2 -1 7
-12 14 -24 16 -16 3 -39 -13 -80 -54z"/>
<path d="M562 1460 c-23 -17 -42 -33 -42 -36 0 -3 15 6 33 20 18 14 44 29 57
35 15 6 19 10 9 10 -9 1 -35 -13 -57 -29z"/>
<path d="M1340 1431 c-38 -37 -62 -70 -66 -90 -7 -32 -123 -173 -136 -165 -18
11 -39 114 -33 157 l7 44 -59 0 c-43 0 -60 -4 -60 -14 0 -7 8 -13 17 -13 68 0
41 -173 -45 -290 -49 -67 -73 -80 -96 -52 -15 20 -18 20 -30 6 -11 -14 -10
-18 6 -30 10 -8 22 -14 27 -14 4 0 8 -4 8 -10 0 -6 -38 -10 -94 -10 -108 0
-133 13 -95 49 12 11 25 18 30 16 4 -3 5 4 2 15 -3 11 -9 22 -13 25 -5 3 -6
-3 -3 -13 3 -14 -2 -18 -29 -17 -30 0 -34 4 -51 50 -34 89 -17 167 59 272 15
22 15 23 -9 32 -29 11 -57 47 -57 73 0 24 -7 23 -39 -5 -25 -21 -26 -25 -14
-43 32 -48 -58 -207 -179 -318 -63 -58 -69 -66 -58 -85 6 -12 8 -26 5 -31 -5
-9 -125 110 -134 132 -2 6 2 21 9 34 11 20 11 27 -5 44 -23 26 -29 25 -43 -4
-6 -14 -27 -43 -47 -64 -38 -43 -39 -72 -1 -72 25 0 142 -115 174 -172 28 -50
72 -174 72 -203 0 -38 21 -41 49 -7 36 43 161 115 177 101 8 -7 23 -3 49 12
33 20 35 23 18 32 -27 14 -43 38 -43 64 l0 23 508 0 c279 0 789 0 1135 0 l627
0 0 30 0 30 -766 0 c-512 0 -772 3 -785 10 -15 9 -17 15 -9 29 8 15 18 18 49
14 31 -4 47 0 71 17 17 12 33 21 34 19 2 -2 8 -14 14 -25 10 -18 8 -24 -11
-37 -17 -12 -18 -16 -6 -16 9 -1 29 9 45 21 21 17 26 18 22 6 -6 -13 2 -17 41
-20 43 -3 47 -1 38 14 -8 12 -5 24 14 50 13 18 31 45 39 61 18 37 29 31 51
-28 17 -44 17 -51 4 -72 -8 -12 -15 -24 -15 -25 0 -2 33 -2 74 0 l73 3 -10 41
c-20 80 32 240 102 314 43 45 116 104 130 104 6 0 11 4 11 9 0 5 -19 7 -42 4
-36 -5 -52 -15 -96 -62 -60 -64 -127 -193 -137 -263 -14 -93 -55 -38 -55 72 0
55 39 199 62 228 8 9 -3 12 -50 12 -69 0 -84 -12 -52 -42 18 -17 21 -28 16
-59 -6 -38 -105 -221 -155 -288 l-26 -35 -8 60 c-21 164 -20 187 5 261 25 70
25 70 6 96 -20 28 -61 36 -74 16 -4 -6 -7 -35 -8 -63 -2 -63 -32 -130 -127
-282 -52 -83 -75 -112 -83 -104 -6 6 -11 52 -11 108 0 122 19 166 115 260 61
61 67 70 63 100 -3 18 -11 32 -19 32 -7 0 -41 -27 -74 -59z m49 -18 c-35 -45
-59 -66 -65 -60 -4 4 10 22 31 42 42 38 55 45 34 18z m149 -16 c8 -9 6 -33 -8
-86 -10 -40 -20 -74 -22 -76 -2 -2 -11 3 -22 10 -17 13 -17 16 -2 61 8 25 13
50 10 55 -8 14 6 49 20 49 8 0 18 -6 24 -13z m242 -19 c0 -10 -7 -18 -15 -18
-8 0 -15 8 -15 18 0 10 7 19 15 19 8 0 15 -9 15 -19z m-1142 -8 c28 -26 28
-30 -6 -68 -24 -27 -31 -30 -45 -19 -15 11 -15 16 0 60 8 26 18 47 22 47 4 0
17 -9 29 -20z m454 -130 c6 -25 18 -53 26 -62 17 -20 52 -24 52 -6 0 6 3 8 6
5 4 -3 15 5 26 18 26 33 50 33 43 0 -17 -84 -14 -79 -34 -61 -19 17 -51 22
-51 8 0 -5 -11 -14 -24 -20 -22 -10 -27 -8 -46 25 -17 29 -23 34 -31 22 -5 -9
-6 0 -3 26 3 22 7 58 9 80 4 49 6 56 11 30 3 -11 10 -40 16 -65z m-506 -65
l-11 -80 -45 4 c-25 1 -47 5 -49 7 -2 2 9 17 23 35 15 18 38 54 52 82 14 27
29 46 34 41 4 -5 2 -45 -4 -89z m898 39 c3 -9 6 -41 6 -72 -1 -60 -15 -88 -57
-111 -26 -14 -73 -15 -73 -1 0 14 104 200 111 200 4 0 10 -7 13 -16z m256 -62
c0 -43 5 -58 26 -78 16 -17 32 -24 45 -21 16 4 19 0 19 -28 0 -21 -6 -35 -16
-39 -35 -13 -52 4 -73 74 -12 39 -25 70 -30 70 -19 0 -21 36 -4 67 22 41 33
27 33 -45z m-660 -25 c0 -12 -7 -49 -15 -81 -9 -33 -14 -61 -12 -63 2 -2 12
15 22 38 18 40 90 109 114 109 7 0 11 -29 11 -90 l0 -91 -122 3 -123 3 3 25
c1 14 16 38 33 53 17 16 39 48 50 73 22 48 39 57 39 21z m-836 -112 c52 -59
62 -66 87 -61 35 7 59 -25 39 -50 -8 -8 -9 -24 -5 -41 5 -16 9 -34 11 -41 10
-50 70 -53 159 -7 48 25 49 25 68 6 25 -24 14 -41 -24 -41 -19 0 -57 -18 -106
-50 -42 -27 -79 -50 -84 -50 -5 0 -15 23 -23 51 -9 28 -20 57 -26 64 -6 7 -9
17 -8 23 2 5 -13 35 -32 67 -32 52 -59 81 -142 157 -34 31 -35 42 -5 63 20 14
22 14 27 -4 3 -11 32 -50 64 -86z m1285 30 c0 -37 -1 -39 -14 -21 -8 10 -13
28 -10 40 2 12 4 30 5 41 1 20 1 20 10 0 5 -11 9 -38 9 -60z m-282 -56 c6 -6
25 -18 44 -27 19 -9 35 -25 37 -34 3 -16 -5 -18 -67 -18 -72 0 -84 7 -55 31
11 9 15 28 14 63 -3 89 2 115 10 53 4 -32 12 -63 17 -68z m-632 61 c4 -16 10
-32 15 -35 5 -3 18 -25 30 -50 12 -25 29 -46 38 -46 10 -1 -10 -5 -43 -9 -68
-8 -87 0 -54 23 32 23 21 82 -23 121 -18 17 -25 27 -16 23 10 -3 20 -2 23 4
10 15 23 1 30 -31z m-64 -6 c25 -12 59 -64 59 -89 0 -3 -54 -5 -120 -5 -140 0
-149 9 -77 72 47 42 88 48 138 22z m391 -91 c27 -25 22 -33 -22 -33 -44 0 -45
1 -28 30 16 24 26 25 50 3z m-353 -69 c11 -11 -100 -75 -152 -88 -24 -6 -29
-3 -37 21 -6 16 -15 36 -21 47 -8 14 -8 21 1 26 12 7 201 3 209 -6z"/>
<path d="M543 1160 c-21 -36 -22 -38 -4 -43 15 -4 20 3 25 36 4 22 5 41 4 43
-2 1 -13 -15 -25 -36z"/>
<path d="M1423 1113 l-42 -74 26 3 c40 5 65 46 61 100 l-3 45 -42 -74z"/>
<path d="M1144 1078 c-17 -18 -41 -50 -53 -70 l-23 -38 35 0 c22 0 37 6 41 15
7 20 24 19 29 -2 3 -10 5 15 6 55 0 39 0 72 -2 72 -2 0 -17 -15 -33 -32z"/>
<path d="M1050 1082 c0 -6 -18 -32 -40 -57 -22 -25 -40 -48 -40 -51 0 -2 12
-4 28 -4 25 0 29 6 45 57 9 31 14 59 12 62 -3 2 -5 -1 -5 -7z"/>
<path d="M425 1005 l-40 -35 58 0 c38 0 57 4 57 12 0 9 3 9 12 0 15 -15 68
-16 68 -2 0 6 -12 22 -26 35 -38 36 -80 32 -129 -10z"/>
<path d="M412 845 c6 -14 17 -25 24 -25 16 0 104 38 104 45 0 3 -31 5 -70 5
l-70 0 12 -25z"/>
<path d="M2595 1460 c-9 -10 -30 -22 -45 -25 -23 -5 -32 -16 -46 -53 -44 -125
-38 -117 -84 -123 -50 -7 -55 0 -40 66 15 68 -1 115 -40 115 -16 0 -31 -4 -35
-9 -3 -6 -35 -7 -73 -4 -96 8 -141 -8 -211 -72 -73 -69 -104 -133 -105 -225
-1 -50 3 -71 19 -92 30 -39 68 -58 118 -58 77 0 129 31 132 80 0 8 9 14 19 13
12 -1 15 2 8 9 -7 7 -17 6 -32 -2 -17 -9 -19 -14 -10 -20 21 -13 -22 -30 -75
-30 -97 0 -153 54 -140 133 22 128 133 237 243 237 52 0 75 -28 66 -79 -5 -24
-3 -32 5 -27 6 4 11 20 11 35 0 15 6 36 14 47 23 31 39 4 38 -68 0 -65 -44
-223 -83 -300 -19 -36 -19 -38 -1 -38 14 0 25 22 51 101 18 55 41 108 52 117
13 11 15 19 8 28 -6 7 -8 18 -4 24 9 15 25 2 18 -15 -4 -12 4 -15 36 -15 53 0
58 -13 37 -95 -19 -77 -21 -134 -3 -139 6 -3 30 -7 52 -9 34 -5 37 -4 17 5
-28 14 -36 44 -29 116 6 65 85 288 122 344 26 40 19 60 -10 28z m-80 -187 c-5
-10 -9 -24 -11 -31 -6 -31 -14 -41 -28 -36 -19 7 -15 23 13 62 24 34 39 37 26
5z"/>
<path d="M2611 1403 c-15 -32 -47 -113 -70 -180 -33 -96 -41 -134 -39 -175 2
-42 7 -54 22 -56 10 -2 23 2 30 9 8 9 8 10 -1 5 -16 -9 -18 64 -4 92 5 9 23
53 41 97 17 44 47 108 66 143 19 34 34 69 34 76 0 13 -31 46 -43 46 -4 0 -20
-26 -36 -57z"/>
<path d="M2775 1441 c-3 -2 -5 -19 -5 -36 0 -57 -77 -204 -157 -302 -28 -34
-38 -56 -39 -84 0 -36 1 -37 25 -27 14 5 35 18 46 28 11 10 31 20 45 23 24 4
24 4 -3 6 -15 0 -30 8 -33 16 -7 18 73 128 87 120 13 -9 10 -66 -6 -95 -12
-22 -11 -27 2 -43 15 -16 14 -20 -12 -47 l-29 -30 87 0 c63 0 87 3 87 13 0 22
-16 38 -33 32 -43 -17 -51 102 -18 275 11 58 23 115 27 126 5 19 1 22 -30 26
-20 2 -39 2 -41 -1z m37 -66 c5 -6 -29 -216 -37 -223 -3 -3 -5 2 -5 11 0 9 -9
21 -20 27 -27 14 -26 25 14 105 19 38 32 73 30 77 -6 9 10 11 18 3z m-32 -290
c0 -16 -6 -25 -16 -25 -11 0 -14 5 -10 16 3 9 6 20 6 25 0 5 5 9 10 9 6 0 10
-11 10 -25z m14 -65 c14 -29 14 -30 -8 -30 -18 0 -22 5 -20 23 1 12 3 25 3 30
2 14 10 7 25 -23z"/>
<path d="M983 1403 c-7 -3 -13 -12 -13 -21 0 -9 -7 -25 -14 -35 -7 -9 -11 -27
-9 -40 3 -16 -3 -26 -26 -40 -17 -10 -31 -22 -31 -26 0 -5 23 -11 50 -13 28
-3 54 -8 57 -12 10 -9 -24 -103 -50 -141 -12 -17 -15 -25 -6 -18 29 24 68 108
79 176 14 79 10 97 -25 97 -23 0 -25 3 -19 28 10 40 10 40 61 34 27 -2 46 -2
43 0 -7 8 -83 16 -97 11z"/>
<path d="M1666 1392 c-16 -56 -17 -89 -2 -101 9 -8 16 -21 16 -30 1 -23 26 25
35 67 6 28 3 37 -19 57 -22 20 -26 21 -30 7z"/>
<path d="M1837 1403 c-22 -36 -57 -173 -57 -223 0 -68 15 -88 23 -31 3 22 21
73 41 114 20 42 36 83 36 92 0 35 -30 69 -43 48z"/>
<path d="M2845 1317 c-10 -51 -20 -134 -23 -185 -4 -88 -3 -94 14 -90 14 2 20
13 22 38 1 19 12 85 22 147 25 139 25 155 1 170 -17 11 -20 6 -36 -80z"/>
<path d="M509 1380 c-9 -10 -25 -23 -35 -28 -18 -11 -18 -12 4 -28 13 -9 27
-26 32 -38 8 -20 9 -20 20 9 7 17 16 47 20 68 6 31 5 37 -9 36 -9 0 -23 -9
-32 -19z"/>
<path d="M1381 1341 c-34 -32 -70 -79 -80 -103 -22 -50 -35 -156 -22 -189 8
-23 8 -23 24 7 9 18 14 34 11 37 -14 14 23 85 72 138 49 53 74 104 74 152 0
28 -14 20 -79 -42z"/>
<path d="M2400 1358 c0 -25 -3 -53 -6 -62 -5 -12 0 -16 18 -16 23 0 24 2 18
43 -3 23 -11 51 -18 62 -10 17 -11 14 -12 -27z"/>
<path d="M1571 1318 c-24 -84 -26 -142 -6 -213 15 -55 15 -55 19 30 1 33 12
86 24 118 23 61 28 107 12 107 -5 0 -10 7 -10 15 0 37 -19 9 -39 -57z"/>
<path d="M2119 1360 c-101 -53 -166 -179 -134 -257 18 -43 29 -42 33 2 3 50
45 111 99 145 103 66 133 18 49 -77 -10 -13 -17 -26 -14 -29 4 -3 36 5 72 17
56 19 67 27 76 53 17 56 23 113 11 132 -9 16 -10 12 -11 -23 0 -38 -2 -42 -31
-48 -38 -9 -41 -6 -29 34 14 49 -2 71 -48 71 -20 -1 -53 -9 -73 -20z m80 -25
c-3 -2 -22 -12 -43 -20 -29 -12 -37 -13 -34 -3 3 7 18 16 34 19 40 9 48 10 43
4z"/>
<path d="M1132 1291 c3 -64 11 -91 22 -80 3 2 7 31 11 64 6 55 5 61 -15 73
-22 14 -22 14 -18 -57z"/>
<path d="M692 1319 c-56 -69 -74 -151 -49 -233 18 -60 34 -56 29 7 -5 59 14
109 47 127 15 8 41 80 41 114 0 2 -10 6 -22 8 -16 3 -30 -4 -46 -23z"/>
<path d="M163 1218 c-20 -26 -24 -42 -4 -18 l20 25 32 -30 33 -30 -25 32 c-26
35 -41 40 -56 21z"/>
<path d="M1892 1205 c-24 -52 -35 -148 -23 -192 l12 -43 52 0 c46 1 50 2 30
13 -60 33 -87 119 -64 202 12 46 9 56 -7 20z"/>
<path d="M2366 1174 c-9 -8 -16 -16 -16 -17 0 -1 -13 -40 -30 -87 -16 -47 -30
-88 -30 -92 0 -5 13 -8 30 -8 19 0 28 4 25 13 -2 6 6 39 18 72 17 45 27 61 43
63 20 3 34 27 34 60 0 17 -56 15 -74 -4z"/>
<path d="M2703 1123 c-34 -49 -35 -53 -14 -53 13 0 23 11 31 36 15 45 8 53
-17 17z"/>
<path d="M226 1133 c-11 -11 -6 -32 11 -53 21 -24 33 -26 33 -4 0 20 -35 66
-44 57z"/>
<path d="M1659 1036 c-20 -32 -24 -47 -16 -55 18 -18 45 -13 58 10 11 21 4 89
-9 89 -4 0 -19 -20 -33 -44z"/>
<path d="M67 1019 c-8 -32 9 -59 43 -66 44 -8 135 -110 172 -190 17 -38 40
-102 52 -143 21 -73 23 -75 55 -78 28 -3 39 2 59 28 34 44 126 100 164 100 40
0 108 30 108 47 0 7 -12 18 -26 23 -14 6 -22 15 -19 21 4 6 -11 1 -33 -10 -23
-12 -48 -18 -56 -15 -22 9 -155 -72 -168 -102 -8 -16 -19 -24 -37 -24 -24 0
-27 6 -42 69 -28 115 -78 208 -148 279 -34 34 -70 62 -80 62 -9 0 -22 5 -28
11 -7 7 -12 4 -16 -12z"/>
<path d="M2700 1026 c-14 -6 -41 -21 -60 -34 -19 -12 -50 -22 -69 -22 -19 0
-32 -3 -29 -6 4 -3 37 -2 75 1 64 7 70 9 91 41 12 19 21 34 20 33 -2 0 -14 -6
-28 -13z"/>
<path d="M1447 1003 c-11 -11 -33 -18 -61 -18 -24 0 -42 -3 -39 -7 8 -14 100
-9 113 7 18 22 8 38 -13 18z"/>
<path d="M2210 1012 c-8 -2 -22 -10 -30 -17 -8 -7 -24 -15 -35 -18 -11 -2 -1
-5 22 -6 33 -1 45 3 53 20 13 24 11 28 -10 21z"/>
<path d="M704 985 c-18 -14 -17 -14 15 -15 29 0 32 2 21 15 -15 18 -12 18 -36
0z"/>
<path d="M2892 932 l3 -57 -508 0 c-382 0 -506 -3 -503 -12 3 -6 -4 -35 -16
-65 -17 -44 -19 -71 -16 -163 3 -97 7 -117 32 -168 15 -32 30 -56 32 -54 2 2
-4 19 -13 38 -24 48 -30 219 -10 279 l15 45 73 6 c89 7 169 31 194 59 15 16
31 20 87 20 59 0 68 -2 68 -18 0 -10 -6 -24 -12 -31 -11 -10 -7 -10 17 -1 46
18 183 16 228 -3 29 -12 75 -17 198 -18 88 0 162 1 164 3 3 3 8 143 6 174 -1
7 -10 14 -21 17 -18 5 -20 1 -18 -51z"/>
<path d="M727 873 c-86 -3 -98 -6 -95 -21 2 -9 18 -23 36 -31 19 -9 31 -20 28
-28 -4 -10 8 -13 49 -13 50 0 55 -2 56 -22 0 -22 1 -22 10 2 7 17 7 32 0 48
-18 39 4 61 69 65 l55 3 -55 0 c-30 0 -99 -2 -153 -3z"/>
<path d="M1515 850 c4 -18 -8 -53 -37 -115 -42 -88 -43 -93 -43 -190 1 -103
12 -144 51 -176 16 -13 16 -12 0 14 -43 64 -30 188 30 309 13 26 24 56 24 67
0 16 8 20 42 23 39 3 43 6 48 33 4 21 14 34 37 45 31 15 29 15 -63 15 l-94 0
5 -25z"/>
<path d="M941 833 c-30 -84 -131 -281 -172 -333 -23 -30 -74 -90 -112 -133
-74 -83 -80 -107 -27 -107 16 0 30 3 30 8 1 4 23 32 51 62 27 30 70 83 95 117
42 59 132 235 151 298 l10 30 154 5 154 5 23 43 23 42 -183 0 -184 0 -13 -37z"/>
<path d="M1301 796 c-22 -33 -72 -99 -112 -146 -78 -94 -129 -176 -201 -322
-45 -92 -50 -98 -78 -98 -21 0 -30 5 -30 16 0 26 50 103 88 134 20 16 33 32
30 35 -3 3 -23 3 -45 -1 -34 -5 -42 -11 -52 -41 -16 -42 -64 -99 -102 -119
-18 -9 -59 -14 -117 -14 -135 0 -145 26 -51 128 123 135 187 231 252 384 20
47 37 89 37 92 0 3 -20 6 -44 6 -47 0 -60 -13 -43 -42 17 -26 -35 -144 -108
-245 -103 -144 -206 -263 -272 -317 -47 -39 -60 -56 -56 -71 3 -11 7 -21 8
-23 2 -2 50 7 107 19 57 13 139 23 185 23 69 1 86 -2 112 -21 38 -29 41 -29
41 1 0 14 4 27 9 30 14 9 34 -22 28 -45 -5 -20 -3 -21 40 -15 25 3 63 6 84 6
29 0 37 3 33 14 -3 8 -14 16 -24 19 -19 5 -19 7 -4 59 17 58 54 127 78 148 33
26 109 7 192 -49 42 -28 80 -51 84 -51 5 0 20 -4 35 -10 21 -8 24 -13 16 -29
-6 -10 -24 -24 -41 -29 -16 -6 -30 -12 -30 -14 0 -2 68 -3 150 -3 113 0 146 3
135 11 -8 6 -15 17 -15 25 1 20 123 252 134 253 5 1 15 -23 22 -51 31 -122 71
-165 196 -213 l82 -32 18 22 c23 28 23 37 -3 112 -18 55 -19 69 -9 152 25 211
78 309 170 314 48 3 67 10 74 27 9 25 -101 21 -122 -5 -10 -11 -41 -28 -71
-38 -70 -22 -87 -46 -117 -167 -41 -166 -64 -237 -77 -232 -7 2 -28 34 -46 71
-33 63 -35 74 -39 185 -4 104 -2 123 17 166 11 26 21 49 21 51 0 2 -36 4 -80
4 -84 0 -140 -18 -140 -44 0 -8 -3 -22 -6 -30 -6 -14 0 -16 36 -10 l43 7 -5
-89 c-5 -93 -43 -226 -94 -325 -37 -74 -91 -106 -134 -79 -13 8 -13 13 -2 31
12 18 12 23 0 30 -7 5 -16 9 -20 9 -20 0 -50 88 -55 160 -6 87 10 157 59 253
16 33 27 65 24 72 -3 9 -28 13 -79 13 l-75 -1 -41 -61z m-411 19 c0 -9 -30
-58 -31 -50 0 6 -2 19 -4 29 -5 26 2 36 20 29 8 -3 15 -6 15 -8z m575 5 c3 -5
-8 -38 -25 -72 -64 -131 -65 -261 -4 -386 43 -89 61 -113 79 -106 7 3 16 1 19
-5 4 -6 14 -3 26 9 11 11 29 20 40 20 25 0 25 -2 1 -28 -16 -19 -29 -22 -90
-22 -48 0 -70 4 -66 10 11 18 -23 58 -54 65 -17 3 -46 17 -66 31 -20 13 -39
24 -44 24 -4 0 -16 8 -25 19 -42 46 -173 51 -194 8 -6 -13 -11 -16 -11 -7 1 8
13 35 29 60 16 25 36 60 46 78 9 17 20 32 25 32 5 0 9 4 9 10 0 5 11 22 24 37
60 67 126 153 126 163 0 13 22 53 35 62 15 11 113 10 120 -2z m355 -30 c-7
-51 -5 -240 4 -273 15 -62 56 -137 78 -146 46 -18 64 19 119 244 16 67 36 105
55 105 8 0 12 5 9 10 -3 6 -1 10 4 10 14 0 14 4 -8 -66 -41 -128 -53 -293 -26
-369 19 -54 6 -69 -52 -60 -122 18 -171 67 -215 215 -12 42 -15 45 -46 44 -37
-2 -36 -7 -17 71 20 83 20 189 -1 209 -8 9 -22 16 -30 16 -20 0 -17 18 4 23 9
3 42 4 72 4 l55 -2 -5 -35z m-821 -534 c-6 -20 -9 -49 -7 -64 3 -24 -1 -27
-31 -30 -51 -5 -73 40 -26 52 16 4 32 21 46 47 24 49 32 47 18 -5z m-435 -10
c8 -14 26 -26 38 -28 24 -4 -104 -38 -143 -38 -18 0 -15 6 24 45 26 25 50 45
55 45 6 0 17 -11 26 -24z m281 -36 c-18 -20 -47 -20 -53 0 -3 7 0 10 7 6 6 -4
11 -3 11 2 0 13 44 31 49 20 1 -5 -4 -17 -14 -28z"/>
<path d="M1314 713 c-11 -10 -33 -36 -49 -58 -16 -22 -35 -46 -42 -53 -7 -7
-13 -18 -13 -23 0 -6 -5 -7 -12 -3 -7 4 -8 3 -4 -4 4 -7 3 -12 -1 -12 -5 0
-17 -16 -28 -36 -24 -44 -12 -68 35 -72 19 -2 47 -14 63 -28 16 -13 32 -24 35
-25 4 0 15 -2 24 -4 9 -2 24 5 33 15 14 15 15 24 5 60 -15 55 -10 116 12 162
21 43 23 69 6 86 -17 17 -42 15 -64 -5z m37 -83 c-23 -69 -25 -125 -6 -187 12
-38 -21 -41 -59 -4 -25 24 -41 31 -73 31 -24 0 -43 5 -46 13 -5 12 70 113 149
201 26 29 38 36 46 28 9 -9 6 -30 -11 -82z"/>
<path d="M1274 603 c-94 -118 -92 -113 -45 -113 31 0 41 4 46 21 4 11 12 18
19 16 7 -3 13 6 14 24 1 17 11 53 22 81 11 29 18 53 16 55 -1 2 -34 -36 -72
-84z"/>
<path d="M1300 479 c0 -15 7 -33 16 -40 15 -12 16 -11 9 11 -14 46 -24 58 -25
29z"/>
<path d="M2389 799 c-31 -3 -80 -17 -110 -31 -55 -25 -129 -82 -129 -99 0 -18
39 -8 45 11 6 20 50 38 62 26 14 -14 -47 -250 -95 -371 -11 -28 -33 -73 -49
-100 l-29 -50 -452 -5 c-366 -4 -453 -8 -464 -19 -11 -11 -7 -13 27 -7 22 3
290 6 595 6 l555 1 160 155 160 154 -18 33 c-27 46 -33 124 -13 170 19 46 10
66 -46 97 -47 26 -123 38 -199 29z m171 -39 c17 -12 35 -30 40 -40 13 -24 13
-70 0 -90 -8 -12 -10 -11 -10 7 0 12 -6 28 -13 35 -7 7 -16 20 -19 29 -8 20
-79 41 -141 41 -61 -1 -97 -23 -97 -60 0 -34 -70 -252 -82 -252 -10 0 -10 8 2
50 22 77 41 220 32 237 -8 14 -3 20 31 36 85 40 206 43 257 7z m-75 -40 c58
-13 85 -49 85 -113 0 -29 -7 -77 -15 -107 -12 -47 -24 -64 -79 -116 -66 -62
-221 -149 -254 -142 -23 5 -22 10 42 189 30 86 60 184 67 218 12 56 16 62 44
70 40 12 62 12 110 1z m125 -187 c0 -12 5 -25 10 -28 21 -13 8 -43 -40 -90
-27 -27 -50 -47 -50 -44 0 3 12 29 26 58 14 30 28 76 31 103 6 49 23 49 23 1z
m-207 -288 l-74 -74 -97 3 c-53 2 -103 4 -110 5 -8 1 1 22 23 56 19 31 35 60
35 65 0 5 4 11 8 14 4 3 8 -14 8 -37 l-1 -42 40 1 c22 1 51 4 65 7 27 5 113
47 145 71 48 35 27 1 -42 -69z"/>
<path d="M2391 701 c-20 -5 -28 -20 -47 -91 -12 -47 -41 -137 -64 -200 -60
-168 -58 -155 -23 -137 22 12 36 32 56 84 24 64 60 184 72 245 6 30 45 44 94
33 48 -10 65 -37 58 -92 -4 -31 -3 -41 3 -28 10 24 13 116 4 140 -13 32 -104
60 -153 46z"/>
<path d="M2240 780 c-8 -5 -24 -10 -36 -10 -40 0 -82 -66 -104 -163 -23 -105
-29 -208 -14 -266 17 -64 41 -99 29 -41 -10 43 -8 102 7 204 l11 78 42 -4 42
-5 13 54 c6 30 9 58 5 61 -4 4 -10 1 -12 -6 -14 -40 -75 -58 -87 -26 -10 25
20 62 75 96 27 17 49 33 49 34 0 6 -4 5 -20 -6z"/>
<path d="M1659 753 c-19 -3 -28 -11 -31 -28 -6 -29 8 -45 38 -45 18 0 24 -7
27 -32 2 -18 5 0 5 40 1 39 -1 71 -5 71 -5 -1 -20 -4 -34 -6z"/>
<path d="M2650 660 c-14 -53 -6 -126 16 -151 10 -11 14 -27 11 -41 -4 -13 -78
-92 -166 -176 l-159 -152 -186 0 c-151 0 -186 -3 -186 -14 0 -11 -26 -13 -136
-9 -75 2 -145 8 -155 13 -25 14 -342 13 -356 -1 -6 -6 -44 -13 -85 -15 -86 -5
-98 -8 -98 -29 0 -13 69 -15 616 -15 l615 0 97 98 c53 54 128 126 166 160 l69
63 -11 37 c-25 89 -30 115 -26 135 2 12 7 36 10 53 4 20 0 43 -9 60 l-15 29
-12 -45z"/>
<path d="M1693 349 c-30 -64 -48 -111 -42 -115 6 -3 14 -15 18 -27 7 -18 12
-12 34 37 15 32 27 64 27 71 0 7 6 18 14 24 12 10 19 3 40 -41 37 -79 59 -94
139 -101 40 -4 67 -2 67 3 0 6 -8 10 -17 10 -35 0 -120 48 -150 85 -17 20 -39
58 -48 84 -9 25 -19 53 -23 63 -5 11 -22 -16 -59 -93z"/>
<path d="M970 440 l-55 -7 52 -1 c28 -1 55 3 58 8 3 6 5 9 3 8 -2 -1 -28 -4
-58 -8z"/>
<path d="M1080 334 c-45 -71 -57 -118 -36 -139 9 -9 16 -23 16 -30 0 -8 5 -17
10 -20 7 -4 9 2 5 18 -8 29 21 100 55 135 17 18 29 22 49 17 22 -5 93 -47 111
-65 28 -29 38 -30 74 -14 36 18 39 34 6 34 -10 0 -52 23 -94 51 -54 37 -88 53
-120 56 -45 5 -45 5 -76 -43z"/>
<path d="M959 343 c-26 -28 -59 -78 -59 -88 0 -3 6 -5 13 -5 6 0 27 27 44 60
18 33 31 60 30 60 -2 0 -15 -12 -28 -27z"/>
<path d="M380 215 c-13 -16 -9 -122 5 -145 8 -14 51 -10 155 14 36 8 102 18
147 22 80 7 84 6 125 -22 42 -28 46 -29 161 -27 66 1 122 4 125 8 4 3 0 18 -9
33 l-15 27 -112 -2 c-104 -2 -114 -1 -148 22 -20 14 -51 25 -68 26 -86 2 -157
-4 -235 -22 -126 -27 -131 -27 -131 19 0 21 5 43 12 50 7 7 9 12 6 12 -3 0
-11 -7 -18 -15z"/>
</g>
</svg>
